<?xml version="1.0" encoding="utf-8"?>
<!-- Generator: Adobe Illustrator 19.2.1, SVG Export Plug-In . SVG Version: 6.00 Build 0)  -->
<svg version="1.1" id="Layer_1" xmlns="http://www.w3.org/2000/svg" xmlns:xlink="http://www.w3.org/1999/xlink" x="0px" y="0px"
	 viewBox="0 0 2368 524" style="enable-background:new 0 0 2368 524;" xml:space="preserve">
<style type="text/css">
	.st0{fill:#ED1B30;}
</style>
<g>
	<path d="M1548.2,382.7c1.2,1.7,1.5,2.7,2.2,3.2c30.2,21.3,59.5,44.1,92.4,61.3c29.2,15.3,59.5,27,92.9,28.6
		c10.6,0.5,21.3-0.6,31.9-0.9c1.5,0,3.1,0.2,5.2,2c-2.8,1.3-5.5,2.9-8.4,4c-38.2,15.2-76.2,15-115,0.9
		c-54.6-19.8-103.8-48.2-147.4-86.5c-5.1-4.5-10.2-6.3-16.9-6.5c-38.5-1.4-73.8-12-102-39.5c-39.5-38.4-57.5-85.2-51.1-140.2
		c6.2-53.7,28.6-99.4,70.4-134.9c33.1-28.1,71.8-41.2,114.9-42.5c27.6-0.8,54.9,2.1,80.1,13.9c58.5,27.2,90.3,72.9,92.1,138
		c1.2,40.6-8.8,78.5-28.8,113.9c-23,40.9-56.9,68.1-101.8,81.7C1555.4,380.3,1552.1,381.4,1548.2,382.7z M1356.6,187
		c0.2,4.7,0.2,9.3,0.6,14c5.8,63,37,111,88.2,146.4c30,20.8,63.8,28.3,99.9,21.9c78.3-13.9,135.6-86.2,120.3-168.8
		c-9.1-49.2-35.7-87-75.9-115.5c-25.6-18.1-53.9-30.3-85.4-34.1C1433.2,42.3,1353.8,105.2,1356.6,187z"/>
	<path d="M1798.2,334c0,16.1,0,32.2,0,48.9c-21.9,0-42.7,0-63.4,0c-0.1-0.5-0.2-0.9-0.3-1.4c2.3-0.6,4.6-1.3,7-1.8
		c10.7-2.1,15.1-6.3,16.3-17.1c0.8-6.9,0.9-14,0.9-21c0.1-91,0-182,0-273c0-1.3,0-2.7-0.1-4c-0.3-20.4-6.3-22.6-20.9-24
		c-1.1-0.1-2.2-0.9-3.9-1.6c7.9-2.5,78.5-2.8,90-0.3c-3.7,0.9-5.7,1.5-7.8,1.9c-10.8,1.9-14.5,5-15.9,16
		c-1.3,10.2-1.9,20.6-1.9,30.9c-0.2,74,0,148-0.2,222c0,5.7,1.6,10.1,5.6,14.2c20,21,42.9,36.9,71.9,42.5
		c18.7,3.6,37.2,3.3,55.1-3.9c28.4-11.6,47-31.8,54.2-62.1c3.9-16.4,4.6-33,4.6-49.6c0.1-59,0-118,0-177c0-5-0.1-10-0.6-15
		c-1.1-11.5-5.3-15.8-16.7-17.6c-2.5-0.4-5-0.8-7.4-1.2c0-1-0.1-1.3,0-1.6c0.1-0.2,0.4-0.6,0.7-0.6c28-0.2,55.9-0.3,83.9-0.4
		c1.2,0,2.3,0.4,3.7,2.2c-2.3,0.5-4.6,1.2-7,1.5c-11.7,1.6-14.9,4.6-16.1,16.5c-0.8,7.3-1,14.6-1.1,21.9c-0.1,66.7-0.1,133.3,0,200
		c0,14.5-1.7,28.7-6.8,42.2c-12.8,34.1-37.9,54.6-73,61.5c-53.8,10.6-100.9-3.7-140.5-41.8c-2.6-2.5-4.5-5.8-6.7-8.7
		C1800.6,332.8,1799.4,333.4,1798.2,334z"/>
	<path d="M987.5,362.7c-3.4,2.8-5.7,5.1-8.3,6.8c-27.4,17-57.1,21.3-88.4,14.6c-14.4-3.1-26.7-10.8-36.2-21.9
		c-12.3-14.4-24.7-29-35.5-44.5c-20.6-29.5-40.5-59.5-60-89.7c-5.3-8.2-10.4-12.3-20.7-11.2c-11.9,1.3-24,0.6-36,0.8
		c-2.9,0.1-5.9,0.3-9.3,0.6c-0.3,3-0.8,5.6-0.8,8.1c0,40.3-0.1,80.6,0,121c0,5.6,0.5,11.3,1.2,16.9c1.2,9,6,14.6,15.4,15.6
		c2.1,0.2,4.1,1,5.9,3.1c-28.4,0-56.7,0-85.5,0c1.3-4,4.8-3,7.3-3.4c8.7-1.5,13.9-6.3,14.7-15.1c0.7-7.6,1.3-15.3,1.3-22.9
		c0.1-88,0.1-176,0-263.9c0-7-0.8-13.9-1.6-20.9c-1.1-9.7-6.9-14.7-16.5-15.8c-1.8-0.2-3.5-0.9-5.2-3c1.4-0.2,2.8-0.7,4.2-0.7
		c45,0.1,90,0.2,135,0.5c16.3,0.1,31.6,4.1,46,12c20.2,11.1,31.4,28.2,34.1,51c4.3,36.4-10.3,64.9-37.2,88.1
		c-6.5,5.6-13.8,10.3-21.2,15.8c0.7,1.7,1.1,3.6,2.2,5.1c23.5,34.8,46.7,69.8,70.8,104.1c9.1,13,20.2,24.8,31,36.6
		c4.4,4.8,9.9,9,15.6,12.3c21.4,12.5,43.4,13.8,65.8,2.2c2.6-1.4,5.4-2.5,8.1-3.6C984,360.9,984.8,361.5,987.5,362.7z M692.9,208.7
		c23.6,0.2,46.3,2,68.5-3.7c28.3-7.3,45.3-25.7,50.6-54.3c2.4-12.9,2.1-26-1.5-38.7c-12.6-43.9-33.9-59-66.4-64.4
		c-4.3-0.7-8.6-1.2-12.9-1.3c-12.6-0.2-25.1-0.1-38.3-0.1C692.9,100.4,692.9,153.9,692.9,208.7z"/>
	<path d="M36.9,381c3.1-0.6,6.3-1.2,9.4-1.8c6.6-1.3,10.8-5.4,11.9-11.9c1.1-6.6,2-13.2,2.1-19.8c0.1-93.3,0.1-186.5,0.1-279.8
		c0-1,0-2-0.1-3c-0.8-18-3.1-20.7-20.9-24.4c-0.6-0.1-1.1-0.7-2.7-1.7c2.4-0.6,4.1-1.4,5.7-1.4c39,0.1,77.9,0,116.9,0.6
		c16.1,0.2,31.6,3.5,46.3,10.6c50.6,24.6,60.9,97.3,12.5,132.7c-2.9,2.1-5.8,4.3-9.8,7.4c3.7,1.2,6.3,2.2,9,2.9
		c36.6,9.9,59.7,37,63.5,74.8c3.6,35-5.8,65.9-29.6,92.2c-9.7,10.7-21.5,18-35.7,20.7c-11.7,2.2-23.7,4.3-35.6,4.4
		c-46,0.5-91.9,0.2-137.9,0.2c-1.6,0-3.2-0.3-4.9-0.4C37,382.3,37,381.6,36.9,381z M100,203.4c0,5,0,8.6,0,12.3
		c0,20.3-0.1,40.7,0,61c0.1,19,0,38,0.6,57c0.5,16.2,8.7,27.6,23.6,34c3.4,1.4,6.8,2.8,10.4,3.6c19.8,4.3,39.7,4.7,59.6,1.3
		c25.9-4.5,41.5-19.9,46.9-45.5c5.1-24.3,3.8-48.4-4-72c-3.8-11.5-10.1-21.7-18.2-30.8c-8.5-9.6-18.9-16-31.7-17.3
		c-15.9-1.5-31.8-2.7-47.8-3.4C126.8,203,114.1,203.4,100,203.4z M101,43.6c-2,15.6-1.3,144.8,0.8,153.1c21.6-0.6,43.5,1.7,65.2-3
		c16.7-3.6,28.5-13.1,36-28.8c8.3-17.3,11.7-35.3,9.6-54.3c-2.8-25.3-14.7-44.7-38-56C151.4,43.4,126.3,44.2,101,43.6z"/>
	<path d="M1114.3,389c-43.8,0.3-75.2-6.3-102.8-25.1c-46.4-31.6-71.4-75.6-72.2-132.1c-0.6-45.4,13-87,39.5-123.6
		c35.9-49.8,85.7-74.5,146.9-76.4c23.5-0.7,46.6,1.9,69,9.5c62.3,21,103.1,77.8,103.4,143.4c0.2,44.1-9.6,85.2-34.5,122.1
		C1226.8,361.3,1172.9,388.9,1114.3,389z M1100.4,50.4c-57.8-2.7-135.7,51.5-135.2,133.6c0.5,68,30.1,120.7,84.1,159.8
		c73.8,53.4,157.9,21,197.1-30.3c36.6-47.9,39.2-100.2,14.9-153.7c-23.9-52.4-66.1-85-120.1-102.9C1127.8,52.3,1114,50,1100.4,50.4z
		"/>
	<path d="M518.1,212.5c18.2-1.6,35.2-5.7,51.4-13.1c-13.6,12.4-31.7,13.7-48.9,18.4c0.9,2.9,1.5,5.4,2.4,7.8
		c15.8,39.6,31.6,79.2,47.5,118.7c2.2,5.6,4.9,11,7.5,16.3c4.9,10.1,12.2,17.4,23.8,19.3c1.2,0.2,2.2,0.9,3.2,2.3
		c-25.8,1.6-51.5,1.4-79,0.9c12.5-8.2,13.2-11.3,7-26.7c-12.9-32.1-25.9-64.2-38.8-96.3c-4-9.9-8.1-19.7-11.8-29.7
		c-1.8-4.7-4.4-6.7-9.6-6.6c-29.3,0.2-58.6,0.2-87.9,0c-5.2,0-7.7,2-9.5,6.7c-16.9,43.1-34,86.1-51.1,129.1c-0.5,1.2-1,2.5-1.4,3.8
		c-3.9,11.9-3.6,12.8,7.4,18.3c-6.4,2.3-31.7,3-49.9,0.9c3.5-1.5,5.3-2.6,7.1-2.9c7.7-1.5,13.4-5.7,17.1-12.5
		c2.9-5.3,5.7-10.6,7.9-16.1c16.2-40.5,32.2-81.1,48.2-121.6c0.7-1.8,1.3-3.7,2.3-6.6c-11.4-0.9-21.6,1.5-31.5,4.4
		c-10,3-19.7,7.1-30.1,9.8c4.5-2.6,8.8-5.9,13.6-7.5c13.2-4.4,26.5-8.8,40.2-11.6c7.8-1.6,12-4.2,14.9-11.7
		c20.8-53.7,42.2-107.2,63.3-160.8c1.3-3.4,2.5-6.9,4.2-10.2c2.5-4.7,6.3-4.6,8.8,0.3c1.7,3.2,2.8,6.7,4.2,10.1
		c21,52.2,42,104.4,63,156.6C514.9,205.5,516.4,208.7,518.1,212.5z M473.8,214.9c-3-14.2-41.8-110.2-46.8-116
		c-15.1,38.2-30,76-45.1,114.3C413.3,213.8,443.1,214.4,473.8,214.9z"/>
	<path d="M2330.2,383c-78.1,0-155.7,0-233.2,0c-0.2-0.5-0.4-1.1-0.6-1.6c2.1-0.7,4.2-1.6,6.3-2c12.4-2.8,15.6-6.4,16.3-19
		c0.3-5,0.4-10,0.4-15c0-86.7,0-173.3,0-260c0-8.3-0.1-16.7-0.8-25c-1-11.8-2.9-18.6-18.7-19.7c-1.2-0.1-2.4-0.6-3.5-0.9
		c0.1-0.8,0-1.2,0.1-1.5c0.1-0.3,0.3-0.7,0.5-0.7c1.6-0.3,3.3-0.6,4.9-0.6c69.6,0,139.2,0,210,0c0.6,15.8,0.2,30.7,0.3,45.7
		c-0.9,0.1-1.7,0.3-2.6,0.4c-1-2.2-2.1-4.4-2.9-6.6c-1.9-5.3-3.7-10.7-5.5-16.1c-2.4-7.2-7.7-10.7-14.9-11.3c-6-0.5-12-0.9-18-0.9
		c-33.3-0.1-66.7-0.1-100,0c-2.6,0-5.2,0.3-9.3,0.6c-0.2,51.5-0.1,102.6-0.1,154.1c2.6,0.6,4.5,1.4,6.3,1.4c35-0.1,70-0.1,105-0.5
		c13.1-0.2,13.3-0.7,21.8-10.5c0,10.8,0,20.6,0,30.5c-5.6-10.3-15.2-10.2-24.4-10.3c-34.3-0.2-68.7-0.1-103-0.1
		c-1.3,0-2.6,0.4-4.7,0.7c-0.3,2.5-1,5-1,7.5c0,35.3,0,70.7,0.4,106c0.1,7,0.8,14,2.2,20.8c3.1,15.1,9.9,21.1,25.1,22.7
		c7.9,0.8,16,1.2,24,1.2c26.7,0,53.3-0.4,80-0.6c3,0,6-0.2,9-0.5c14.1-1.5,21.6-7.7,25.5-21.4c1.2-4,2.2-8,3.7-13.1
		C2331.6,344.5,2332.2,367.5,2330.2,383z"/>
	<path class="st0" d="M1227.1,222.2c0,48.7-34.1,86-83.7,90.2c-34.6,2.9-65.8-5.7-89.8-31.9c-27-29.6-38.1-64.7-28.7-104.3
		c9-37.9,42.7-64.6,81.5-66.9c13.4-0.8,26.7-0.4,39.6,3.2c43.6,12,68.2,41.8,78,84.8C1225.9,205.5,1226.1,213.9,1227.1,222.2z
		 M1208.5,205.9c0.4-58.4-59.1-96.6-108.4-73.6c-36.1,16.9-60.5,58.9-57.7,98.6c2.9,40.5,44.5,70.5,79.2,65.1
		c26.1-4.1,47.6-16.4,64.7-36.3C1200.6,243.1,1208.1,224,1208.5,205.9z"/>
</g>
</svg>
